<svg width="55" height="55" viewBox="0 0 55 55" fill="none" xmlns="http://www.w3.org/2000/svg">
<path d="M54.2358 45.7344L46.4814 53.4266C45.3367 54.6005 43.8195 54.9982 42.3419 55C35.8074 54.8042 29.6308 51.5944 24.5594 48.2985C16.2351 42.2425 8.59715 34.7334 3.80344 25.659C1.96488 21.8537 -0.1924 16.9986 0.0137124 12.7512C0.0320916 11.1535 0.46265 9.58539 1.5879 8.55552L9.34226 0.805056C10.9525 -0.564582 12.5097 -0.0910315 13.5401 1.50434L19.7785 13.334C20.4351 14.7355 20.0585 16.237 19.0788 17.2385L16.2219 20.0939C16.0456 20.3355 15.9333 20.6105 15.9304 20.9098C17.0259 25.1504 20.3448 29.0589 23.2766 31.7487C26.2085 34.4386 29.3599 38.0828 33.4506 38.9455C33.9562 39.0865 34.5756 39.1361 34.9373 38.7998L38.2607 35.4199C39.4064 34.5516 41.0605 34.1272 42.2835 34.8372H42.3418L53.5944 41.4804C55.2463 42.5159 55.4185 44.517 54.2358 45.7344Z" fill="white"/>
</svg>
